name C:\Users\r0593348\3dpredictsim\Results\batch_windlass\Pog_s1_tmt_bCst_d05_k1000_WL40_ig24_pas.mot
datacolumns 128
datarows 4
range 1.10713633 1.14035042
endheader
time	pelvis_tilt	pelvis_list	pelvis_rotation	pelvis_tx	pelvis_ty	pelvis_tz	hip_flexion_l	hip_adduction_l	hip_rotation_l	hip_flexion_r	hip_adduction_r	hip_rotation_r	knee_angle_l	knee_angle_r	ankle_angle_l	ankle_angle_r	subtalar_angle_l	subtalar_angle_r	tmt_angle_l	tmt_angle_r	mtp_angle_l	mtp_angle_r	lumbar_extension	lumbar_bending	lumbar_rotation	arm_flex_l	arm_add_l	arm_rot_l	arm_flex_r	arm_add_r	arm_rot_r	elbow_flex_l	elbow_flex_r	pro_sup_l	pro_sup_r	glut_med1_l/activation	glut_med2_l/activation	glut_med3_l/activation	glut_min1_l/activation	glut_min2_l/activation	glut_min3_l/activation	semimem_l/activation	semiten_l/activation	bifemlh_l/activation	bifemsh_l/activation	sar_l/activation	add_long_l/activation	add_brev_l/activation	add_mag1_l/activation	add_mag2_l/activation	add_mag3_l/activation	tfl_l/activation	pect_l/activation	grac_l/activation	glut_max1_l/activation	glut_max2_l/activation	glut_max3_l/activation	iliacus_l/activation	psoas_l/activation	quad_fem_l/activation	gem_l/activation	peri_l/activation	rect_fem_l/activation	vas_med_l/activation	vas_int_l/activation	vas_lat_l/activation	med_gas_l/activation	lat_gas_l/activation	soleus_l/activation	tib_post_l/activation	flex_dig_l/activation	flex_hal_l/activation	tib_ant_l/activation	per_brev_l/activation	per_long_l/activation	per_tert_l/activation	ext_dig_l/activation	ext_hal_l/activation	ercspn_l/activation	intobl_l/activation	extobl_l/activation	glut_med1_r/activation	glut_med2_r/activation	glut_med3_r/activation	glut_min1_r/activation	glut_min2_r/activation	glut_min3_r/activation	semimem_r/activation	semiten_r/activation	bifemlh_r/activation	bifemsh_r/activation	sar_r/activation	add_long_r/activation	add_brev_r/activation	add_mag1_r/activation	add_mag2_r/activation	add_mag3_r/activation	tfl_r/activation	pect_r/activation	grac_r/activation	glut_max1_r/activation	glut_max2_r/activation	glut_max3_r/activation	iliacus_r/activation	psoas_r/activation	quad_fem_r/activation	gem_r/activation	peri_r/activation	rect_fem_r/activation	vas_med_r/activation	vas_int_r/activation	vas_lat_r/activation	med_gas_r/activation	lat_gas_r/activation	soleus_r/activation	tib_post_r/activation	flex_dig_r/activation	flex_hal_r/activation	tib_ant_r/activation	per_brev_r/activation	per_long_r/activation	per_tert_r/activation	ext_dig_r/activation	ext_hal_r/activation	ercspn_r/activation	intobl_r/activation	extobl_r/activation	
          1.10713633	         -2.92476757	         -1.74898707	          6.22439851	          1.38392042	          0.85859709	         -0.00226611	        -18.08723488	         -1.83996725	          7.28038825	         31.92962807	          1.94992564	         -3.80499277	         -8.79481453	        -17.60292279	          1.91076644	          3.89085320	         12.70393681	          0.63197941	        -12.48155207	          0.46348980	         30.23056893	         -0.87278707	         -1.07588126	         -0.13409873	         -2.15983656	          6.72533090	        -13.47095459	         17.55894772	        -10.09691643	        -13.54993453	          8.51491808	         36.68673998	         14.96559845	         86.51662706	         86.51662706	          0.25044246	          0.08830911	          0.05000015	          0.27838009	          0.18947137	          0.09073722	          0.05000173	          0.05000032	          0.05000023	          0.06953413	          0.08003190	          0.15832489	          0.05869867	          0.05000938	          0.05000916	          0.05002186	          0.26899794	          0.05522985	          0.05000114	          0.05000294	          0.05000197	          0.05000210	          0.33219829	          0.56679527	          0.05000035	          0.05000097	          0.05000018	          0.28906571	          0.09058075	          0.08320993	          0.11534835	          0.27614631	          0.35329845	          0.20600256	          0.20879240	          0.19267592	          0.26327615	          0.05000000	          0.14255979	          0.19665253	          0.05000005	          0.05000001	          0.05000005	          0.05000000	          0.05000049	          0.05000003	          0.05000022	          0.05000192	          0.05000013	          0.05000020	          0.05000028	          0.05000228	          0.05561212	          0.05922614	          0.21693584	          0.05000034	          0.05006649	          0.08161534	          0.11230773	          0.15921253	          0.16326542	          0.13983581	          0.05000066	          0.05000076	          0.05918305	          0.05922662	          0.12258535	          0.13626020	          0.06412968	          0.06642000	          0.17215577	          0.05000030	          0.05000111	          0.05275629	          0.11384095	          0.11772203	          0.09567066	          0.05845040	          0.05922597	          0.05693928	          0.05743548	          0.05922649	          0.05922667	          0.51361084	          0.34068761	          0.19745015	          0.20393681	          0.55147564	          0.18788198	          0.05369819	          0.10359557	          0.12052945	
          1.11820770	         -2.91510774	         -1.80084666	          6.48071481	          1.40108853	          0.85758282	         -0.00207282	        -17.94826900	         -2.11232736	          7.09282805	         31.29937380	          2.29497411	         -3.59525816	        -10.67850588	        -17.13185579	          0.75323582	          3.69380572	         13.54800775	          0.09106004	        -13.01409536	          0.38543977	         31.11388354	         -0.68109076	         -0.84129138	          0.08289205	         -2.24343367	          6.46518766	        -13.50471428	         17.81834928	        -11.29381057	        -13.53929077	          8.31292573	         37.81586988	         14.93829602	         86.51662706	         86.51662706	          0.21142907	          0.07455250	          0.05000003	          0.23501465	          0.15995592	          0.07660239	          0.05000041	          0.05000007	          0.05000005	          0.05870227	          0.06756493	          0.20285403	          0.18752826	          0.05008325	          0.05000070	          0.05000016	          0.22709475	          0.12662688	          0.05000071	          0.05000053	          0.05000036	          0.05000025	          0.28044983	          0.53485241	          0.05000009	          0.05000029	          0.05000011	          0.24403567	          0.14638291	          0.07024814	          0.13434098	          0.23312876	          0.29826228	          0.17391187	          0.17626715	          0.16266133	          0.22226355	          0.05000014	          0.12035214	          0.16601842	          0.05000026	          0.06198874	          0.05000037	          0.05510284	          0.05000003	          0.05000002	          0.05918969	          0.05000110	          0.30191678	          0.05922623	          0.05922618	          0.05000107	          0.05000062	          0.05000010	          0.21192886	          0.05000008	          0.05000042	          0.09843381	          0.26537214	          0.24098308	          0.20601992	          0.15840934	          0.05000010	          0.07524104	          0.05000057	          0.05000049	          0.10348934	          0.18352867	          0.05922615	          0.05796822	          0.14533772	          0.13813245	          0.11005949	          0.05991895	          0.19139847	          0.18744933	          0.16073519	          0.05000001	          0.05000003	          0.05000001	          0.05000003	          0.05000038	          0.05000055	          0.64904857	          0.28767003	          0.16669181	          0.51526036	          0.62376779	          0.29820689	          0.05287663	          0.08745765	          0.10175360	
          1.12927906	         -2.90039323	         -1.85538978	          6.70805865	          1.41850197	          0.85635779	         -0.00188674	        -17.71937033	         -2.37017980	          6.88939433	         30.55552476	          2.62314205	         -3.31547545	        -12.75221848	        -17.32436589	         -0.46039141	          3.28808728	         14.33447366	         -0.45976779	        -13.33403886	          0.20364201	         31.43725836	         -0.35178555	         -0.58913374	          0.31105984	         -2.31609696	          6.12483292	        -13.54864294	         18.00117606	        -12.47977523	        -13.53553368	          8.18134376	         38.93756010	         14.89919120	         86.51662706	         86.51662706	          0.17849308	          0.06293888	          0.05015891	          0.19840457	          0.13503833	          0.06466946	          0.05002538	          0.05000089	          0.05922615	          0.05000005	          0.05703989	          0.24950346	          0.31598477	          0.20302828	          0.09271576	          0.13810833	          0.19171853	          0.10690141	          0.05007044	          0.05009894	          0.05824833	          0.05922677	          0.23676191	          0.48856310	          0.05922617	          0.05922620	          0.05137161	          0.20602028	          0.12841964	          0.16358923	          0.11368889	          0.19681240	          0.25179955	          0.14682021	          0.14880862	          0.13732235	          0.18763982	          0.12466823	          0.10160404	          0.16952739	          0.05000023	          0.15231471	          0.09000404	          0.07023464	          0.05922619	          0.05922643	          0.05000003	          0.05000017	          0.25488488	          0.05000011	          0.05000010	          0.05000016	          0.05000280	          0.05678073	          0.17891503	          0.05000008	          0.05000023	          0.08310002	          0.22403303	          0.31772054	          0.28564520	          0.18486780	          0.05000033	          0.06352074	          0.13149951	          0.14895732	          0.15210809	          0.15992179	          0.05000005	          0.05000007	          0.27162240	          0.11661448	          0.09291467	          0.05058506	          0.23111452	          0.22996202	          0.19779533	          0.05922622	          0.05000053	          0.05000003	          0.05000001	          0.05002516	          0.05000038	          0.54794102	          0.32730701	          0.17410000	          0.59696536	          0.56699317	          0.25175282	          0.05000000	          0.07383367	          0.08590262	
          1.14035042	         -2.88245452	         -1.91772750	          6.90070643	          1.43599110	          0.85493965	         -0.00170926	        -17.37946632	         -2.61081195	          6.68734157	         29.66184757	          2.91689829	         -3.00614368	        -15.05117278	        -17.81567871	         -1.65258885	          3.10291911	         15.03399703	         -1.06168830	        -13.22440709	         -0.21398151	         30.76331865	         -0.10274655	         -0.33388925	          0.55367291	         -2.37484922	          5.72782264	        -13.59811530	         18.10740066	        -13.61131418	        -13.54403816	          8.16579917	         40.04514552	         14.81342108	         86.51662706	         86.51662706	          0.20231951	          0.05313441	          0.05000002	          0.19648080	          0.11400242	          0.05459544	          0.05000219	          0.05000020	          0.05000018	          0.05000026	          0.05922671	          0.21063638	          0.26676132	          0.17140096	          0.07827280	          0.11659414	          0.26228704	          0.09024873	          0.05000056	          0.05000068	          0.05000047	          0.05000073	          0.21167183	          0.47448036	          0.05000009	          0.05000030	          0.05000005	          0.17392685	          0.10841470	          0.13810563	          0.09597867	          0.16615334	          0.21257470	          0.12394883	          0.12562755	          0.11593064	          0.15840975	          0.15721016	          0.13894387	          0.15202571	          0.12139931	          0.20696519	          0.08309619	          0.08970928	          0.05000005	          0.05000026	          0.27903366	          0.34339743	          0.54458343	          0.37182306	          0.25170189	          0.36991567	          0.07999934	          0.10456484	          0.15104404	          0.07015467	          0.05000048	          0.07015489	          0.18913363	          0.26822670	          0.24114804	          0.17195600	          0.05000014	          0.05922623	          0.11107172	          0.26982356	          0.21601097	          0.16762730	          0.05000234	          0.05000025	          0.22930966	          0.09844872	          0.28474198	          0.05000002	          0.20351297	          0.24111903	          0.19892567	          0.05000010	          0.05000015	          0.05239978	          0.05000005	          0.05000013	          0.05000032	          0.68496926	          0.27631975	          0.14697904	          0.51825426	          0.61333218	          0.36835791	          0.06194961	          0.08309986	          0.07252087	
